<?xml version="1.0" encoding="UTF-8" standalone="no"?>
<svg
   xmlns:dc="http://purl.org/dc/elements/1.1/"
   xmlns:cc="http://creativecommons.org/ns#"
   xmlns:rdf="http://www.w3.org/1999/02/22-rdf-syntax-ns#"
   xmlns:svg="http://www.w3.org/2000/svg"
   xmlns="http://www.w3.org/2000/svg"
   xmlns:sodipodi="http://sodipodi.sourceforge.net/DTD/sodipodi-0.dtd"
   xmlns:inkscape="http://www.inkscape.org/namespaces/inkscape"
   version="1.1"
   id="svg2"
   xml:space="preserve"
   width="398.25333"
   height="33.84"
   viewBox="0 0 398.25333 33.84"
   sodipodi:docname="Particuleye Logo Type Full Colour.eps"><metadata
     id="metadata8"><rdf:RDF><cc:Work
         rdf:about=""><dc:format>image/svg+xml</dc:format><dc:type
           rdf:resource="http://purl.org/dc/dcmitype/StillImage" /></cc:Work></rdf:RDF></metadata><defs
     id="defs6" /><sodipodi:namedview
     pagecolor="#ffffff"
     bordercolor="#666666"
     borderopacity="1"
     objecttolerance="10"
     gridtolerance="10"
     guidetolerance="10"
     inkscape:pageopacity="0"
     inkscape:pageshadow="2"
     inkscape:window-width="640"
     inkscape:window-height="480"
     id="namedview4" /><g
     id="g10"
     inkscape:groupmode="layer"
     inkscape:label="ink_ext_XXXXXX"
     transform="matrix(1.3333333,0,0,-1.3333333,0,33.84)"><g
       id="g12"
       transform="scale(0.1)"><path
         d="m 34.1992,132.824 h 43.1953 c 15.836,0 28.0745,4.324 36.7075,12.598 8.64,8.641 12.961,19.082 12.961,32.762 0,13.671 -4.321,24.836 -12.961,33.117 -8.633,8.633 -20.8715,12.234 -36.7075,12.234 H 34.1992 Z m 0,-64.7849 V 0.722656 H 0 V 68.0391 Z M 77.3945,253.77 c 28.4335,0 49.6685,-6.473 64.0705,-19.434 14.758,-12.598 21.953,-31.316 21.953,-56.152 0,-24.844 -7.195,-43.555 -21.953,-56.512 C 127.063,109.074 105.828,102.59 77.3945,102.59 H 34.1992 0 v 151.18 h 77.3945"
         style="fill:#7b7b7c;fill-opacity:1;fill-rule:nonzero;stroke:none"
         id="path14" /><path
         d="m 406.426,253.77 49.679,-130.301 h -33.476 l -35.637,96.824 -35.637,-96.824 H 317.883 L 367.551,253.77 Z M 467.258,94.3086 502.891,1.08594 H 467.258 L 444.219,65.8711 H 330.117 L 307.078,1.08594 h -35.992 l 35.633,93.22266 h 160.539"
         style="fill:#7b7b7c;fill-opacity:1;fill-rule:nonzero;stroke:none"
         id="path16" /><path
         d="m 658.438,132.824 h 43.195 c 15.84,0 28.074,4.324 36.707,12.598 8.64,8.641 12.961,19.082 12.961,32.762 0,13.671 -4.321,24.836 -12.961,33.117 -8.633,8.633 -20.867,12.234 -36.707,12.234 h -43.195 z m 0,-64.7849 V 0.722656 h -34.2 V 68.0391 Z M 701.633,253.77 c 28.433,0 49.668,-6.473 64.07,-19.434 14.758,-12.598 21.953,-31.316 21.953,-56.152 0,-24.844 -7.195,-43.555 -21.953,-56.512 -7.558,-6.484 -17.285,-11.524 -29.16,-15.117 L 785.859,1.08594 H 747.703 L 700.547,102.59 h -42.109 -34.2 v 151.18 h 77.395"
         style="fill:#7b7b7c;fill-opacity:1;fill-rule:nonzero;stroke:none"
         id="path18" /><path
         d="M 1019.49,189.699 V 0.722656 H 984.941 V 189.699 Z m 89.63,63.711 v -28.801 h -89.63 v -0.351 h -34.549 v 0.351 h -89.628 v 28.801 h 213.807"
         style="fill:#7b7b7c;fill-opacity:1;fill-rule:nonzero;stroke:none"
         id="path20" /><path
         d="M 1251.7,116.992 V 0.722656 h -34.55 V 116.992 Z m 0,136.055 V 151.184 h -34.55 v 101.863 h 34.55"
         style="fill:#7b7b7c;fill-opacity:1;fill-rule:nonzero;stroke:none"
         id="path22" /><path
         d="m 1563.8,253.41 -0.37,-33.476 -77.74,0.722 c -13.32,0 -24.84,-1.797 -34.2,-6.125 -9.35,-3.953 -18.36,-9.355 -26.99,-17.273 -14.4,-15.84 -23.4,-32.395 -27.36,-49.668 h -37.07 c 3.59,29.512 14.03,53.269 32.03,71.269 22.68,23.036 52.91,34.551 90.35,34.551 z m -168.1,-137.5 c 1.8,-21.6014 10.44,-40.6756 25.92,-57.9491 7.92,-8.6445 16.55,-14.7656 26.63,-18.7226 10.08,-3.6016 22.33,-5.3985 36.72,-5.3985 l 78.46,0.3594 0.37,-33.11326 -81.35,-0.363284 c -38.15,0 -68.04,11.164044 -90.35,33.476544 -19.8,20.8789 -30.6,47.8711 -32.75,81.7108 h 36.35"
         style="fill:#7b7b7c;fill-opacity:1;fill-rule:nonzero;stroke:none"
         id="path24" /><path
         d="M 1865.11,253.047 V 97.9102 c 0,-32.3907 -7.91,-56.875 -24.47,-73.4258 C 1827.32,10.8008 1808.61,2.88281 1784.86,0.363281 V 32.4023 c 13.67,2.5196 23.75,7.9102 30.96,16.1915 10.07,11.8867 14.74,29.5234 14.74,53.2732 v 151.18 z m -159.1,0 v -151.18 c 0,-23.7498 5.06,-41.3865 14.41,-53.2732 7.19,-7.918 16.92,-13.3204 29.87,-15.8399 V 0.722656 C 1727.26,3.60547 1708.9,11.5234 1695.93,24.4844 c -16.19,16.5508 -24.47,41.0351 -24.47,73.4258 V 253.047 h 34.55"
         style="fill:#7b7b7c;fill-opacity:1;fill-rule:nonzero;stroke:none"
         id="path26" /><path
         d="M 2130.09,28.8008 V 0 h -88.55 v 28.8008 z m -123.1,224.2462 c 0,-131.738 0,-215.965 0,-253.047 h -34.2 v 253.047 h 34.2"
         style="fill:#7b7b7c;fill-opacity:1;fill-rule:nonzero;stroke:none"
         id="path28" /><path
         d="m 2312.24,29.5234 c 37.42,0 65.86,0 85.67,0 V 0.722656 H 2238.08 V 29.5234 c 12.25,0 36.72,0 74.16,0 z m 85.67,224.2466 v -28.797 h -125.63 v -74.864 h 125.63 v -29.16 l -125.63,0.36 V 64.0742 h -34.2 V 253.77 h 159.83"
         style="fill:#7b7b7c;fill-opacity:1;fill-rule:nonzero;stroke:none"
         id="path30" /><path
         d="M 2629.76,86.75 V 0.722656 h -34.57 V 86.75 Z m -87.11,166.66 70.18,-104.023 69.47,104.023 h 36.72 l -89.26,-132.101 h -34.57 l -89.26,132.101 h 36.72"
         style="fill:#7b7b7c;fill-opacity:1;fill-rule:nonzero;stroke:none"
         id="path32" /><path
         d="m 2901.19,29.5234 c 37.44,0 65.88,0 85.68,0 V 0.722656 H 2827.05 V 29.5234 c 12.22,0 36.71,0 74.14,0 z m 85.68,224.2466 v -28.797 h -125.62 v -74.864 h 125.62 v -29.16 l -125.62,0.36 V 64.0742 h -34.2 V 253.77 h 159.82"
         style="fill:#7b7b7c;fill-opacity:1;fill-rule:nonzero;stroke:none"
         id="path34" /></g></g></svg>
