<?xml version="1.0" encoding="UTF-8" standalone="no"?>
<svg
   xmlns:dc="http://purl.org/dc/elements/1.1/"
   xmlns:cc="http://creativecommons.org/ns#"
   xmlns:rdf="http://www.w3.org/1999/02/22-rdf-syntax-ns#"
   xmlns:svg="http://www.w3.org/2000/svg"
   xmlns="http://www.w3.org/2000/svg"
   xmlns:sodipodi="http://sodipodi.sourceforge.net/DTD/sodipodi-0.dtd"
   xmlns:inkscape="http://www.inkscape.org/namespaces/inkscape"
   version="1.1"
   id="svg2"
   xml:space="preserve"
   width="299.98666"
   height="234.01334"
   viewBox="0 0 299.98666 234.01334"
   sodipodi:docname="Particuleye Logo Mark Full Colour.eps"><metadata
     id="metadata8"><rdf:RDF><cc:Work
         rdf:about=""><dc:format>image/svg+xml</dc:format><dc:type
           rdf:resource="http://purl.org/dc/dcmitype/StillImage" /></cc:Work></rdf:RDF></metadata><defs
     id="defs6" /><sodipodi:namedview
     pagecolor="#ffffff"
     bordercolor="#666666"
     borderopacity="1"
     objecttolerance="10"
     gridtolerance="10"
     guidetolerance="10"
     inkscape:pageopacity="0"
     inkscape:pageshadow="2"
     inkscape:window-width="640"
     inkscape:window-height="480"
     id="namedview4" /><g
     id="g10"
     inkscape:groupmode="layer"
     inkscape:label="ink_ext_XXXXXX"
     transform="matrix(1.3333333,0,0,-1.3333333,0,234.01333)"><g
       id="g12"
       transform="scale(0.1)"><path
         d="m 1284.93,900.32 h 0.1 L 1124.97,1168.13 964.918,900.32 h 0.105 c -14.96,-26.574 -23.589,-57.179 -23.589,-89.843 0,-101.368 82.176,-183.547 183.536,-183.547 101.37,0 183.54,82.179 183.54,183.547 0,32.664 -8.63,63.269 -23.58,89.843"
         style="fill:#6face2;fill-opacity:1;fill-rule:nonzero;stroke:none"
         id="path14" /><path
         d="m 1125.32,1451.44 c -0.08,0 -0.15,0 -0.23,0 C 775.109,1451.36 513.723,1296.61 389.066,1204.36 277.855,1122.07 204.105,1026.13 161.547,959.539 129.617,909.582 129.91,845.777 162.309,796.121 205.301,730.23 279.285,635.199 389.172,553.328 514.344,460.07 776.352,303.629 1124.84,303.629 c 0.08,0 0.15,0 0.23,0 346.56,0.07 608.85,156.551 734.36,249.82 110.2,81.891 184.45,176.629 227.7,242.406 32.7,49.758 33,113.907 0.79,163.981 -42.81,66.524 -116.85,162.234 -228.39,244.594 -124.94,92.26 -386.46,247.01 -734.21,247.01 z m -0.47,-1228.292 c -275.537,0 -553.854,94.332 -783.784,265.661 C 166.742,618.691 35.2852,785.75 35.2852,877.391 c 0,163.109 440.0858,654.389 1089.7848,654.519 0.07,0 0.18,0 0.25,0 274.85,0 552.55,-93.29 782.04,-262.74 80.71,-59.6 151.39,-126.03 204.54,-189.75 64.12,-76.87 102.76,-149.799 102.76,-202.029 0,-45.676 -33.02,-110.274 -87.92,-179.719 C 2071.82,628.23 1995.03,553.93 1907.46,488.859 1676.96,317.578 1399.11,223.211 1125.09,223.148 c -0.07,0 -0.18,0 -0.24,0"
         style="fill:#b1b0ae;fill-opacity:1;fill-rule:nonzero;stroke:none"
         id="path16" /><path
         d="m 1124.97,393.668 c -267.228,0 -483.861,216.633 -483.861,483.863 0,267.229 216.633,483.859 483.861,483.859 267.23,0 483.87,-216.63 483.87,-483.859 0,-267.23 -216.64,-483.863 -483.87,-483.863 z m 0,1057.562 c -316.841,0 -573.693,-256.85 -573.693,-573.699 0,-316.84 256.852,-573.691 573.693,-573.691 316.84,0 573.7,256.851 573.7,573.691 0,316.849 -256.86,573.699 -573.7,573.699"
         style="fill:#56ace4;fill-opacity:1;fill-rule:nonzero;stroke:none"
         id="path18" /><path
         d="m 52.2578,1755.06 h 38.082 v -90.34 H 0.00390625 v 38.08 c 0,28.86 23.39059375,52.26 52.25389375,52.26"
         style="fill:#7b7b7c;fill-opacity:1;fill-rule:nonzero;stroke:none"
         id="path20" /><path
         d="M 0.00390625,1664.72 H 90.3398 v -219.45 c 0,-24.5 -19.8632,-44.37 -44.3671,-44.37 h -1.6094 c -24.5039,0 -44.35939375,19.87 -44.35939375,44.37 v 219.45"
         style="fill:#b1b0ae;fill-opacity:1;fill-rule:nonzero;stroke:none"
         id="path22" /><path
         d="m 2197.68,1755.06 h -38.07 v -90.34 h 90.34 v 38.08 c 0,28.86 -23.4,52.26 -52.27,52.26"
         style="fill:#7b7b7c;fill-opacity:1;fill-rule:nonzero;stroke:none"
         id="path24" /><path
         d="m 2249.95,1664.72 h -90.34 v -219.45 c 0,-24.5 19.86,-44.37 44.36,-44.37 h 1.61 c 24.51,0 44.37,19.87 44.37,44.37 v 219.45"
         style="fill:#b1b0ae;fill-opacity:1;fill-rule:nonzero;stroke:none"
         id="path26" /><path
         d="m 52.2578,0.0117188 h 38.082 V 90.3398 H 0.00390625 V 52.2617 C 0.00390625,23.3984 23.3945,0.0117188 52.2578,0.0117188"
         style="fill:#7b7b7c;fill-opacity:1;fill-rule:nonzero;stroke:none"
         id="path28" /><path
         d="M 0.00390625,90.3398 H 90.3398 V 309.801 c 0,24.5 -19.8632,44.359 -44.3671,44.359 H 44.3633 C 19.8594,354.16 0.00390625,334.301 0.00390625,309.801 V 90.3398"
         style="fill:#b1b0ae;fill-opacity:1;fill-rule:nonzero;stroke:none"
         id="path30" /><path
         d="m 2197.68,0.0117188 h -38.07 V 90.3398 h 90.34 V 52.2617 c 0,-28.8633 -23.4,-52.2499812 -52.27,-52.2499812"
         style="fill:#7b7b7c;fill-opacity:1;fill-rule:nonzero;stroke:none"
         id="path32" /><path
         d="m 2249.95,90.3398 h -90.34 V 309.801 c 0,24.5 19.86,44.359 44.36,44.359 h 1.61 c 24.51,0 44.37,-19.859 44.37,-44.359 V 90.3398"
         style="fill:#b1b0ae;fill-opacity:1;fill-rule:nonzero;stroke:none"
         id="path34" /><path
         d="m 2159.61,1664.72 v 90.34 h -219.47 c -24.49,0 -44.35,-19.86 -44.35,-44.36 v -1.61 c 0,-24.51 19.86,-44.37 44.35,-44.37 h 219.47"
         style="fill:#b1b0ae;fill-opacity:1;fill-rule:nonzero;stroke:none"
         id="path36" /><path
         d="M 2159.61,0.0117188 V 90.3398 h -219.47 c -24.49,0 -44.35,-19.8593 -44.35,-44.371 v -1.6094 c 0,-24.5 19.86,-44.3476812 44.35,-44.3476812 h 219.47"
         style="fill:#b1b0ae;fill-opacity:1;fill-rule:nonzero;stroke:none"
         id="path38" /><path
         d="m 90.3398,1664.72 v 90.34 H 309.797 c 24.496,0 44.359,-19.86 44.359,-44.36 v -1.61 c 0,-24.51 -19.863,-44.37 -44.359,-44.37 H 90.3398"
         style="fill:#b1b0ae;fill-opacity:1;fill-rule:nonzero;stroke:none"
         id="path40" /><path
         d="M 90.3398,0.0117188 V 90.3398 H 309.797 c 24.496,0 44.359,-19.8593 44.359,-44.371 v -1.6094 c 0,-24.5 -19.863,-44.3476812 -44.359,-44.3476812 H 90.3398"
         style="fill:#b1b0ae;fill-opacity:1;fill-rule:nonzero;stroke:none"
         id="path42" /></g></g></svg>
